<?xml version="1.0" encoding="UTF-8"?>
<svg id="Layer_1" xmlns="http://www.w3.org/2000/svg" viewBox="0 0 1280 1024">
  <defs>
    <style>
      .cls-1 {
        fill: #7b183b;
      }

      .cls-2 {
        fill: #e14081;
      }

      .cls-3 {
        fill: #fcb4fc;
      }
    </style>
  </defs>
  <g id="background-logo">
    <rect class="cls-3" width="1280" height="1024"/>
  </g>
  <g id="logo-logo">
    <path class="cls-2" d="M755.67,449.45c1.31-11.93-1.24-24.03-7.45-33.26-1.52-2.31-3.28-4.42-5.22-6.25-.88-.91-2.12-1.84-2.88-2.49-1.13-.89-2.36-2.05-3.41-2.72-2-1.37-4.3-2.76-6.74-3.83-2.41-1.08-4.92-2-7.51-2.58-10.24-2.54-21.77-1.44-30.7,2.94l-1.52.79-1.93,1.15c-1.31.78-2.19,1.42-3.33,2.2-2.24,1.56-4.39,3.27-6.49,5.05-2.09,1.79-4.09,3.7-6.02,5.67-1.87,1.92-3.86,4.15-5.25,5.96l-10.1,13.2-4.69-16.93c-1.73-6.25-4.74-13.36-8.25-19.32-3.56-6.08-7.82-11.6-12.82-15.9-4.96-4.35-10.55-7.5-16.52-9.24-3.01-.82-6.06-1.44-9.22-1.59-1.55-.18-3.17-.1-4.75-.12-.79-.04-1.61.09-2.41.14l-1.21.09-.6.04-.3.02h-.08c-.45.03.53-.03.39-.02l-.18.03-2.93.41c-.77.16-1.18.33-1.79.47-1.19.36-2.73.77-4.04,1.34-2.72,1.08-5.39,2.4-7.87,4.09-4.97,3.33-9.35,7.62-12.78,12.46-3.35,4.88-5.95,10.17-7.28,15.72-1.38,5.52-1.83,11.21-1.13,16.95.73,5.72,2.23,11.56,4.88,17.25,1.33,2.73,2.91,5.89,4.39,8.28l3.17,4.98,2.97,4.26c3.97,5.83,8.8,12.04,13.38,18.11l14.32,18.27,29.09,36.86,7.24,9.32,3.61,4.67,1.8,2.32c1.01,1.23,1.3,1.71,1.95,2.62,4.58,6.48,9.17,12.95,13.53,19.64h0s-4.94-.66-4.94-.66l60.33-47.56,29.79-23.95c9.85-8.03,19.65-16.07,29.25-24.25,9.55-8.23,19.07-16.41,28.02-24.94,8.9-8.45,17.72-17.16,24.47-25.87l2.12-2.8,2.71-3.97c.86-1.29,1.89-2.71,2.62-3.9l1.97-3.38c2.67-4.43,5.2-9.69,7.29-14.63,4.25-10.06,6.69-20.52,7.48-30.97.6-10.44-.27-20.93-3.29-30.92-2.9-10-7.57-19.53-13.64-28.12-6.12-8.57-13.72-16.05-22.19-22.16-4.28-3-8.78-5.6-13.42-7.83-2.36-1.01-4.69-2.09-7.11-2.88-1.19-.46-2.39-.87-3.62-1.18l-3.22-.92-4.69-1.03-2.34-.52-1.87-.29c-2.41-.37-4.8-.79-7.55-.97-5.33-.6-10.61-.5-15.86-.21-10.48.73-20.74,3.3-30.48,7.64-9.73,4.33-18.91,10.41-27.25,17.72-4.16,3.67-8.16,7.59-11.86,11.77-1.85,2.09-3.64,4.23-5.31,6.41-.84,1.08-1.66,2.19-2.42,3.26l-1.94,2.83-16.69,24.41-14.2-22.97c-.27-.44-1.24-1.78-1.99-2.72l-2.55-3.13c-1.78-2.07-3.64-4.13-5.6-6.09-3.9-3.95-8.11-7.59-12.52-10.88-8.81-6.63-18.58-11.46-28.72-14.55-5.09-1.54-10.32-2.54-15.65-2.9-5.32-.35-10.74-.34-16.17.47-5.42.78-10.89,1.92-16.27,3.77l-2.03.65-.51.16-.25.08-.13.04c.74-.33.17-.07.31-.14l-.07.03-1.12.44-4.48,1.77c-2.34,1.06-4.67,1.98-7.17,3.37-9.84,5.14-18.54,12.46-25.25,21.62-6.66,9.15-11.86,19.85-14.53,31.5-2.64,11.62-3.33,23.98-1.8,36.28,1.62,12.28,5.25,24.56,11.43,35.92-8.65-9.61-15.24-21.41-19.28-34.15-4.12-12.73-5.91-26.44-4.81-40.22,1.1-13.73,4.77-27.71,11.9-40.22,6.97-12.57,17.1-23.64,29.1-31.98,2.88-2.11,6.28-4.09,9.62-6.03l4.29-2.19,1.07-.55,1.6-.7,2.47-1.05c6.55-2.9,13.54-5.07,20.7-6.73,7.17-1.69,14.64-2.45,22.13-2.6,7.51-.14,15.07.6,22.44,2.13,14.82,2.95,28.61,9.37,40.85,17.37,6.13,4.04,11.91,8.5,17.32,13.38,2.72,2.43,5.33,4.98,7.88,7.64,1.28,1.33,2.53,2.7,3.78,4.12,1.31,1.51,2.33,2.68,3.96,4.84l-30.89,1.45c1.34-2.31,2.17-3.59,3.26-5.24,1.03-1.57,2.07-3.08,3.15-4.56,2.13-2.97,4.35-5.82,6.65-8.61,4.62-5.55,9.54-10.84,14.9-15.74,10.7-9.79,22.9-18.32,36.46-24.7,13.53-6.39,28.38-10.48,43.43-11.83,7.51-.6,15.08-.71,22.5-.01,3.64.21,7.58.79,11.5,1.4l2.87.46,2.35.49,4.7.98.59.12,1.26.3,1.4.38,2.8.77c1.88.48,3.72,1.08,5.53,1.73,3.68,1.19,7.2,2.7,10.73,4.21,6.95,3.21,13.6,6.97,19.86,11.26,12.47,8.65,23.27,19.46,32.03,31.75,8.71,12.31,15.48,26.11,19.37,40.82,4.04,14.63,5.31,30.1,3.81,45.15-1.64,15.03-5.68,29.7-11.99,42.98-3.25,6.69-6.59,12.85-10.84,19.19l-3.17,4.73c-1.03,1.48-1.96,2.61-2.94,3.93l-2.91,3.82-.52.68-.23.27-.45.53-.9,1.07-1.82,2.12c-9.78,10.88-19.88,19.56-30.21,27.99-10.38,8.28-20.84,16.13-31.56,23.56-10.68,7.47-21.48,14.64-32.42,21.57-10.88,7.01-22.02,13.57-33.12,20.16-11.08,6.61-22.34,12.92-33.68,19.05-11.3,6.21-22.76,12.11-34.4,17.78l-3.04,1.48-1.9-2.15h0c-6.32-4.88-12.39-9.98-18.48-15.08-5.67-4.71-12.38-9.82-18.27-14.95-6-5.21-12.15-10.3-17.94-15.75-5.85-5.4-11.69-10.82-17.42-16.4-5.69-5.6-11.31-11.33-16.8-17.24-5.56-5.96-10.75-11.9-16.19-18.69l-4.04-5.24-3.41-4.82c-2.84-4.19-5.05-7.94-7.18-12.28-4.08-8.54-7.08-17.99-8.14-27.91-.86-9.91-.07-20.21,3.12-29.76,3.1-9.55,8.1-18.4,14.61-25.76,6.46-7.42,14.3-13.47,23.1-17.77,4.37-2.19,9.04-3.85,13.84-5.05,2.43-.64,4.76-1.02,7.43-1.39,1.34-.15,2.86-.32,4.05-.39l2.96-.05h.18s.58-.03.58-.03h.11s.44.02.44.02l.87.04,1.75.07c1.17.07,2.31.06,3.49.22,2.34.26,4.66.47,7,.97,4.65.79,9.25,2.22,13.66,4,8.82,3.63,16.79,9.14,23.08,15.8,6.36,6.62,11.28,14.13,15.05,21.96,3.79,7.97,6.51,15.67,8.28,24.77l-14.79-3.73c2.5-2.74,4.71-4.78,7.19-6.97,2.44-2.12,4.95-4.15,7.57-6.05,2.63-1.89,5.32-3.69,8.14-5.33,1.4-.8,3.06-1.74,4.38-2.39l2.02-.99c1-.49,1.68-.74,2.54-1.11,3.27-1.35,6.58-2.29,9.9-2.91,3.32-.69,6.67-.94,10-1.05,3.33-.06,6.66.13,9.95.6,3.28.5,6.55,1.18,9.71,2.25,3.18.97,6.25,2.34,9.18,3.93,2.93,1.57,5.67,3.45,8.42,5.71,1.37,1.09,2.24,2.08,3.39,3.13,1.4,1.41,2.27,2.62,3.26,4.04,1.92,2.73,3.48,5.65,4.7,8.66,4.95,12.05,4.74,25.16,1.12,36.58Z"/>
  </g>
  <g>
    <path class="cls-1" d="M476.8,637.43c0,4.22-3.88,6.33-11.62,6.33-6.11,0-20.63-2.83-43.57-8.51-10.71,6.11-16.07,13.8-16.07,23.06,0,4.47,1.54,7.56,4.63,9.26,4.47-.38,7.84-.57,10.11-.57,6.55,0,9.83.79,9.83,2.36,0,1.01-1.74,1.51-5.2,1.51-4.42,0-9.21-.63-14.38-1.89-7,1.01-15.14,3.72-24.41,8.13-23.59,11.28-35.39,25.9-35.39,43.85,0,11.91,6.43,19.47,19.28,22.68-2.33-3.84-3.5-8.28-3.5-13.33,0-12.41,6.34-23.85,19.02-34.31,12.68-10.46,26.56-15.69,41.63-15.69,6.94,0,12.46,1.7,16.56,5.1,4.1,3.4,6.15,7.97,6.15,13.7,0,12.29-6.75,23.36-20.25,33.22-13.5,9.86-28.7,14.79-45.61,14.79-3.41,0-6.59-.19-9.56-.57,6.06,8.13,15.06,12.19,26.99,12.19,7.39,0,13.42-1.1,18.09-3.31l1.14-.19c.38.12.57.38.57.76,0,.88-2.34,1.81-7.01,2.79-4.67.98-8.93,1.46-12.78,1.46-13.19,0-23.26-4.76-30.21-14.27-9.61-2.14-17.13-5.78-22.57-10.92-5.43-5.13-8.15-11.1-8.15-17.91,0-9.13,3.78-17.69,11.34-25.66,7.56-7.97,17.64-14,30.24-18.1,7.62-2.52,16.35-4.35,26.18-5.48-6.99-2.96-10.49-7.66-10.49-14.08,0-8.25,5.1-15.15,15.31-20.7-14.62-3.53-26.68-5.29-36.2-5.29-18.65,0-34.54,4.66-47.68,13.99-13.14,9.33-19.71,20.6-19.71,33.83,0,5.92,1.73,11,5.2,15.22,3.46,4.22,7.62,6.33,12.47,6.33,3.34,0,5.01-.54,5.01-1.61,0-.57-.6-.76-1.79-.57-3.34,0-5.01-1.54-5.01-4.63,0-1.76.74-3.28,2.22-4.54,1.48-1.26,3.26-1.89,5.34-1.89,4.03,0,6.05,1.95,6.05,5.86,0,2.58-1.15,4.77-3.45,6.57-2.3,1.8-5.09,2.69-8.36,2.69-5.86,0-10.85-2.63-14.98-7.89-4.13-5.26-6.19-11.61-6.19-19.04,0-11.15,4.85-21.39,14.55-30.72,11.53-11.09,27.72-16.63,48.58-16.63,11.59,0,27.03,2.36,46.31,7.09,8.69-4.22,18.81-6.33,30.34-6.33,8.57,0,15.88,1.15,21.93,3.45,6.05,2.3,9.07,5.09,9.07,8.36ZM448.17,698.39c0-4.54-1.8-8.28-5.39-11.25-3.6-2.96-8.14-4.44-13.63-4.44-13.56,0-26.81,5.62-39.74,16.87-12.93,11.25-19.4,22.73-19.4,34.45,0,3.4,1.04,6.87,3.12,10.4,3.66.69,7.03,1.04,10.12,1.04,14.89,0,29.43-5.15,43.62-15.45,14.19-10.3,21.29-20.84,21.29-31.61ZM474.82,637.24c0-2.46-2.6-4.63-7.8-6.52-5.2-1.89-11.17-2.84-17.91-2.84-9.26,0-17.71,2.02-25.33,6.05,16.7,5.42,30.75,8.13,42.15,8.13,5.92,0,8.88-1.61,8.88-4.82Z"/>
    <path class="cls-1" d="M506.01,646.69c-26.46,44.04-41.88,69.94-46.26,77.69-4.38,7.75-6.57,12.89-6.57,15.4,0,2.84,1.2,4.25,3.6,4.25,5.3,0,15.02-10,29.15-30.01.31-.63.69-.95,1.14-.95.25.06.38.25.38.57,0,.38-.32.88-.95,1.52l-4.07,5.58c-11.92,16.47-20.72,24.7-26.4,24.7-2.71,0-4.94-1.03-6.67-3.07-1.74-2.05-2.6-4.65-2.6-7.8,0-3.46.8-6.82,2.41-10.07,1.61-3.24,7.07-12.62,16.4-28.12,11.4-18.96,21.01-35.41,28.83-49.33,1.89.5,3.56.76,5.01.76,2.39,0,4.6-.38,6.62-1.13Z"/>
    <path class="cls-1" d="M535.07,713.75c0,.19-.57,1.01-1.7,2.45l-4.07,5.09c-13.05,16.11-24.25,24.16-33.58,24.16-4.42,0-8.12-1.59-11.11-4.77-3-3.18-4.49-7.17-4.49-11.96,0-11.34,7.91-21.33,23.72-29.96,8.32-4.54,15.09-6.8,20.32-6.8,2.27,0,4.21.68,5.81,2.03,1.61,1.36,2.41,3.01,2.41,4.96,0,4.54-2.96,8.4-8.88,11.58-5.92,3.18-15.82,6.16-29.68,8.93-4.29,6.49-6.43,11.91-6.43,16.26,0,5.42,2.93,8.13,8.8,8.13,9.96,0,22.17-9.72,36.61-29.16.76-1.01,1.39-1.51,1.89-1.51.25.06.38.25.38.57ZM527.08,696.22c0-2.02-1.1-3.02-3.31-3.02-3.34,0-7.74,2.32-13.18,6.95-5.45,4.63-10.79,10.63-16.02,18,9.07-2.33,16.76-5.62,23.06-9.88,6.3-4.25,9.45-8.27,9.45-12.05Z"/>
    <path class="cls-1" d="M599.71,713.75c0,1.01-3.41,5.32-10.22,12.93-7.63,8.43-17.5,15.95-29.62,22.56l-4.73,8.6c-8.57,15.81-18.18,28-28.83,36.57-10.21,8.25-19.03,12.38-26.46,12.38-2.71,0-4.95-.82-6.71-2.46-1.76-1.64-2.65-3.66-2.65-6.05,0-12.92,14.59-26.02,43.76-39.32,6.3-2.9,10.36-4.85,12.19-5.86l16.07-29.58c-6.99,9.26-11.92,15.23-14.79,17.91-2.87,2.68-5.81,4.02-8.84,4.02-3.28,0-6.06-1.45-8.36-4.35-2.3-2.9-3.45-6.43-3.45-10.58,0-10.9,7.12-20.79,21.36-29.68,9.51-5.92,16.98-8.88,22.4-8.88,3.78,0,5.67,2.08,5.67,6.24,0,1.13-.28,2.49-.85,4.06l5.29-9.55c1.7.44,3.18.66,4.44.66,1.64,0,4.03-.22,7.18-.66-.44.57-3.21,5.29-8.32,14.18l-23.44,40.45c8.25-4.65,14.85-9.15,19.8-13.5,4.95-4.34,10.54-10.6,16.78-18.78.95-1.26,1.57-1.89,1.89-1.89.28.06.42.25.42.57ZM545.51,754.72c-1.2.69-4.76,2.49-10.68,5.39-28.73,14.24-43.1,27.03-43.1,38.37,0,1.95.72,3.59,2.17,4.91s3.31,1.98,5.58,1.98c6.93,0,13.67-3.54,20.23-10.63,6.55-7.09,14.77-19.8,24.67-38.13l1.13-1.89ZM575.47,698.2c0-3.21-1.54-4.82-4.63-4.82-5.67,0-13.18,5.66-22.54,16.96-9.36,11.31-14.04,20.43-14.04,27.36,0,4.22,1.83,6.33,5.48,6.33s10.02-5.61,18.9-16.82c11.21-14.18,16.82-23.85,16.82-29.01Z"/>
    <path class="cls-1" d="M666.34,713.65c0,1.33-4.6,7.45-13.81,18.36-7.44,8.96-13.31,13.44-17.6,13.44-2.9,0-5.27-1.09-7.1-3.26-1.83-2.17-2.74-4.9-2.74-8.17s1.01-7.09,3.02-11.06c-6.3,8.82-11.12,14.78-14.46,17.86-3.34,3.09-6.58,4.63-9.73,4.63-3.34,0-6.14-1.43-8.41-4.3-2.27-2.87-3.4-6.47-3.4-10.82,0-12.1,8.54-22.81,25.61-32.13,7.5-4.16,13.55-6.24,18.15-6.24,3.91,0,5.86,1.89,5.86,5.67,0,1.07-.25,2.49-.76,4.25l4.82-9.17c1.89.44,3.56.66,5.01.66,1.7,0,3.91-.22,6.62-.66l-16.73,27.69c-5.8,9.7-8.69,16.1-8.69,19.19s1.23,4.44,3.69,4.44,6.56-2.89,12.12-8.66c5.55-5.77,11.2-12.89,16.94-21.35.38-.63.73-.95,1.04-.95.38,0,.57.19.57.57ZM640.3,698.01c0-3.09-1.42-4.63-4.25-4.63-5.8,0-13.41,5.67-22.82,17.01-9.42,11.34-14.13,20.51-14.13,27.5,0,4.1,1.83,6.14,5.48,6.14,4.35,0,11.88-7.21,22.59-21.64,8.76-11.84,13.14-19.97,13.14-24.38Z"/>
    <path class="cls-1" d="M742.23,713.65c0,1.33-4.57,7.45-13.72,18.36-7.51,8.96-13.41,13.44-17.69,13.44-2.84,0-5.22-1.1-7.14-3.31-1.92-2.21-2.89-4.92-2.89-8.13,0-2.83.58-5.47,1.75-7.89,1.17-2.42,4.21-7.23,9.12-14.41,5.1-7.56,7.66-12.38,7.66-14.46,0-2.58-1.36-3.88-4.06-3.88-9.2,0-23.38,17.08-42.53,51.22-3.09-.25-4.95-.38-5.58-.38-2.21,0-4.29.12-6.24.38l14.74-23.34c8.38-13.36,12.57-21.7,12.57-25.04,0-1.89-.79-2.83-2.37-2.83-3.22,0-9.57,6.79-19.04,20.37-.57.82-1.01,1.26-1.33,1.32-.32,0-.5-.19-.57-.57.06-.32.19-.57.38-.76l1.8-2.37c9.65-12.94,16.15-19.42,19.5-19.42,2.15,0,3.98.98,5.49,2.93,1.52,1.95,2.27,4.29,2.27,6.99,0,4.03-2.36,9.64-7.09,16.82,7.43-10.27,13.15-17.29,17.15-21.08,4-3.78,7.7-5.67,11.11-5.67,2.77,0,5.1,1.13,6.99,3.4,1.89,2.27,2.83,5.07,2.83,8.41,0,4.22-2.9,10.68-8.69,19.38-5.92,8.88-8.88,14.55-8.88,17.01,0,2.58,1.29,3.88,3.88,3.88,5.61,0,15.3-10,29.05-30.01.32-.63.63-.95.95-.95.38,0,.57.19.57.57Z"/>
    <path class="cls-1" d="M789.11,713.65c0,.82-4.45,6.12-13.34,15.9-9.71,10.6-17.97,15.9-24.78,15.9-4.42,0-8.2-1.69-11.35-5.06-3.15-3.37-4.73-7.39-4.73-12.05,0-5.29,2.14-10.77,6.43-16.44,4.28-5.67,10.05-10.55,17.29-14.65,6.11-3.53,11.09-5.29,14.93-5.29,4.66,0,6.99,2.77,6.99,8.32,0,4.35-1.46,8.69-4.39,13.04-2.93,4.35-5.84,6.52-8.74,6.52s-4.25-1.42-4.25-4.25c0-3.34,2.9-6.43,8.69-9.26,4.47-2.2,6.71-5.1,6.71-8.69,0-2.84-1.54-4.25-4.63-4.25-5.23,0-11.66,5.2-19.28,15.59-7.62,10.4-11.44,19.12-11.44,26.18,0,5.92,2.77,8.88,8.33,8.88,8.7,0,20.5-9.81,35.38-29.44.82-1.01,1.42-1.51,1.8-1.51.25.06.38.25.38.57Z"/>
    <path class="cls-1" d="M848.55,713.75c0,.95-3.47,5.25-10.41,12.93-7.7,8.43-17.73,16.04-30.09,22.84l-4.63,8.32c-9.14,16.38-18.68,28.57-28.64,36.57-10.27,8.25-19.19,12.38-26.75,12.38-2.58,0-4.74-.82-6.47-2.46-1.73-1.64-2.6-3.66-2.6-6.05,0-12.66,14.59-25.77,43.76-39.32,2.39-1.2,5.99-2.87,10.77-5.01l1.42-.85,16.63-29.58c-6.55,9.01-11.31,14.92-14.27,17.72-2.96,2.8-5.95,4.21-8.98,4.21-2.58,0-4.84-1.1-6.76-3.31-1.92-2.21-2.88-4.79-2.88-7.75,0-3.59,2.24-9.2,6.71-16.82l14.55-24.57c1.45.25,3.12.38,5.01.38,1.64,0,3.91-.22,6.8-.66l-18.62,30.24c-5.29,8.57-7.94,14.18-7.94,16.82,0,2.84,1.29,4.25,3.87,4.25,6.8,0,17.26-12.06,31.38-36.2l8.7-14.84c1.45.25,3.21.38,5.29.38,1.7,0,3.81-.22,6.33-.66-7.81,12.41-18.4,30.62-31.75,54.63,7.7-3.96,14.19-8.26,19.49-12.88,5.3-4.62,11.23-11.15,17.79-19.58.88-1.13,1.45-1.7,1.7-1.7.38,0,.57.19.57.57ZM793.97,754.72c-1.01.57-4.57,2.36-10.68,5.39-28.67,14.24-43,27.03-43,38.37,0,4.73,2.65,7.09,7.94,7.09,6.68,0,13.33-3.62,19.94-10.87,6.62-7.25,14.81-19.94,24.57-38.09l1.23-1.89Z"/>
    <path class="cls-1" d="M915.18,713.65c0,1.33-4.6,7.45-13.81,18.36-7.44,8.96-13.31,13.44-17.6,13.44-2.9,0-5.27-1.09-7.1-3.26-1.83-2.17-2.74-4.9-2.74-8.17s1.01-7.09,3.02-11.06c-6.3,8.82-11.12,14.78-14.46,17.86-3.34,3.09-6.58,4.63-9.73,4.63-3.34,0-6.14-1.43-8.41-4.3-2.27-2.87-3.4-6.47-3.4-10.82,0-12.1,8.54-22.81,25.61-32.13,7.5-4.16,13.55-6.24,18.15-6.24,3.91,0,5.86,1.89,5.86,5.67,0,1.07-.25,2.49-.76,4.25l4.82-9.17c1.89.44,3.56.66,5.01.66,1.7,0,3.91-.22,6.62-.66l-16.73,27.69c-5.8,9.7-8.69,16.1-8.69,19.19s1.23,4.44,3.69,4.44,6.56-2.89,12.12-8.66c5.55-5.77,11.2-12.89,16.94-21.35.38-.63.73-.95,1.04-.95.38,0,.57.19.57.57ZM889.14,698.01c0-3.09-1.42-4.63-4.25-4.63-5.8,0-13.41,5.67-22.82,17.01-9.42,11.34-14.13,20.51-14.13,27.5,0,4.1,1.83,6.14,5.48,6.14,4.35,0,11.88-7.21,22.59-21.64,8.76-11.84,13.14-19.97,13.14-24.38Z"/>
    <path class="cls-1" d="M969.24,713.65c0,.51-1.89,2.81-5.68,6.92-4.8,5.31-9.31,7.96-13.54,7.96-4.8,0-7.2-2.77-7.2-8.32,0-1.76.38-4,1.13-6.71-3.97,3.47-7.2,6.9-9.69,10.3-2.49,3.4-6.79,10.33-12.9,20.79-3.34-.25-5.29-.38-5.86-.38-.25,0-2.17.12-5.76.38l15.5-25.14c7.75-12.6,11.62-20.41,11.62-23.44,0-1.76-.73-2.65-2.18-2.65-3.54,0-9.94,6.79-19.22,20.37-.57.88-1.07,1.32-1.52,1.32-.25-.06-.38-.25-.38-.57.06-.32.19-.57.38-.76l1.7-2.37c9.72-12.94,16.31-19.42,19.79-19.42,5.05,0,7.57,3.25,7.57,9.73,0,4.85-2.58,11.28-7.75,19.28,3.28-3.78,6.39-6.87,9.36-9.26,2.39-5.61,5.37-10.3,8.93-14.08,3.56-3.78,6.76-5.67,9.59-5.67,1.95,0,2.93.85,2.93,2.55,0,3.02-4.38,7.34-13.14,12.95-1.39.88-3.47,2.17-6.24,3.87l-1.13.95c-.88,2.9-1.32,5.29-1.32,7.18,0,5.29,1.99,7.94,5.97,7.94,4.92,0,10.29-4.08,16.1-12.23,1.26-1.39,2.05-2.08,2.37-2.08.38,0,.57.19.57.57Z"/>
    <path class="cls-1" d="M1003.97,691.96l-.76,1.42h-12.38l-21.08,36.01c-2.58,4.35-3.88,7.81-3.88,10.4,0,2.84,1.48,4.25,4.45,4.25,5.74,0,15.42-10,29.05-30.01.44-.63.82-.95,1.14-.95.38,0,.57.19.57.57-.06.19-.38.69-.94,1.52l-4.07,5.58c-11.86,16.47-20.79,24.7-26.78,24.7-2.96,0-5.44-1.07-7.43-3.21-1.99-2.14-2.98-4.82-2.98-8.03,0-3.78,1.67-8.5,5.01-14.18l15.88-26.65h-9.64l.95-1.42h9.45l11.06-18.33c1.89.51,3.69.76,5.39.76s3.59-.25,5.48-.76l-10.87,18.33h12.38Z"/>
  </g>
</svg>