<?xml version="1.0" encoding="UTF-8"?>
<svg id="Layer_1" xmlns="http://www.w3.org/2000/svg" viewBox="0 0 1280 1024">
  <defs>
    <style>
      .cls-1 {
        fill: #fdf9b9;
      }

      .cls-2 {
        fill: #e05520;
      }
    </style>
  </defs>
  <g id="background-logo">
    <rect class="cls-1" width="1280" height="1024"/>
  </g>
  <g id="logo-logo">
    <path class="cls-2" d="M755.67,449.45c1.31-11.93-1.24-24.03-7.45-33.26-1.52-2.31-3.28-4.42-5.22-6.25-.88-.91-2.12-1.84-2.88-2.49-1.13-.89-2.36-2.05-3.41-2.72-2-1.37-4.3-2.76-6.74-3.83-2.41-1.08-4.92-2-7.51-2.58-10.24-2.54-21.77-1.44-30.7,2.94l-1.52.79-1.93,1.15c-1.31.78-2.19,1.42-3.33,2.2-2.24,1.56-4.39,3.27-6.49,5.05-2.09,1.79-4.09,3.7-6.02,5.67-1.87,1.92-3.86,4.15-5.25,5.96l-10.1,13.2-4.69-16.93c-1.73-6.25-4.74-13.36-8.25-19.32-3.56-6.08-7.82-11.6-12.82-15.9-4.96-4.35-10.55-7.5-16.52-9.24-3.01-.82-6.06-1.44-9.22-1.59-1.55-.18-3.17-.1-4.75-.12-.79-.04-1.61.09-2.41.14l-1.21.09-.6.04-.3.02h-.08c-.45.03.53-.03.39-.02l-.18.03-2.93.41c-.77.16-1.18.33-1.79.47-1.19.36-2.73.77-4.04,1.34-2.72,1.08-5.39,2.4-7.87,4.09-4.97,3.33-9.35,7.62-12.78,12.46-3.35,4.88-5.95,10.17-7.28,15.72-1.38,5.52-1.83,11.21-1.13,16.95.73,5.72,2.23,11.56,4.88,17.25,1.33,2.73,2.91,5.89,4.39,8.28l3.17,4.98,2.97,4.26c3.97,5.83,8.8,12.04,13.38,18.11l14.32,18.27,29.09,36.86,7.24,9.32,3.61,4.67,1.8,2.32c1.01,1.23,1.3,1.71,1.95,2.62,4.58,6.48,9.17,12.95,13.53,19.64h0s-4.94-.66-4.94-.66l60.33-47.56,29.79-23.95c9.85-8.03,19.65-16.07,29.25-24.25,9.55-8.23,19.07-16.41,28.02-24.94,8.9-8.45,17.72-17.16,24.47-25.87l2.12-2.8,2.71-3.97c.86-1.29,1.89-2.71,2.62-3.9l1.97-3.38c2.67-4.43,5.2-9.69,7.29-14.63,4.25-10.06,6.69-20.52,7.48-30.97.6-10.44-.27-20.93-3.29-30.92-2.9-10-7.57-19.53-13.64-28.12-6.12-8.57-13.72-16.05-22.19-22.16-4.28-3-8.78-5.6-13.42-7.83-2.36-1.01-4.69-2.09-7.11-2.88-1.19-.46-2.39-.87-3.62-1.18l-3.22-.92-4.69-1.03-2.34-.52-1.87-.29c-2.41-.37-4.8-.79-7.55-.97-5.33-.6-10.61-.5-15.86-.21-10.48.73-20.74,3.3-30.48,7.64-9.73,4.33-18.91,10.41-27.25,17.72-4.16,3.67-8.16,7.59-11.86,11.77-1.85,2.09-3.64,4.23-5.31,6.41-.84,1.08-1.66,2.19-2.42,3.26l-1.94,2.83-16.69,24.41-14.2-22.97c-.27-.44-1.24-1.78-1.99-2.72l-2.55-3.13c-1.78-2.07-3.64-4.13-5.6-6.09-3.9-3.95-8.11-7.59-12.52-10.88-8.81-6.63-18.58-11.46-28.72-14.55-5.09-1.54-10.32-2.54-15.65-2.9-5.32-.35-10.74-.34-16.17.47-5.42.78-10.89,1.92-16.27,3.77l-2.03.65-.51.16-.25.08-.13.04c.74-.33.17-.07.31-.14l-.07.03-1.12.44-4.48,1.77c-2.34,1.06-4.67,1.98-7.17,3.37-9.84,5.14-18.54,12.46-25.25,21.62-6.66,9.15-11.86,19.85-14.53,31.5-2.64,11.62-3.33,23.98-1.8,36.28,1.62,12.28,5.25,24.56,11.43,35.92-8.65-9.61-15.24-21.41-19.28-34.15-4.12-12.73-5.91-26.44-4.81-40.22,1.1-13.73,4.77-27.71,11.9-40.22,6.97-12.57,17.1-23.64,29.1-31.98,2.88-2.11,6.28-4.09,9.62-6.03l4.29-2.19,1.07-.55,1.6-.7,2.47-1.05c6.55-2.9,13.54-5.07,20.7-6.73,7.17-1.69,14.64-2.45,22.13-2.6,7.51-.14,15.07.6,22.44,2.13,14.82,2.95,28.61,9.37,40.85,17.37,6.13,4.04,11.91,8.5,17.32,13.38,2.72,2.43,5.33,4.98,7.88,7.64,1.28,1.33,2.53,2.7,3.78,4.12,1.31,1.51,2.33,2.68,3.96,4.84l-30.89,1.45c1.34-2.31,2.17-3.59,3.26-5.24,1.03-1.57,2.07-3.08,3.15-4.56,2.13-2.97,4.35-5.82,6.65-8.61,4.62-5.55,9.54-10.84,14.9-15.74,10.7-9.79,22.9-18.32,36.46-24.7,13.53-6.39,28.38-10.48,43.43-11.83,7.51-.6,15.08-.71,22.5-.01,3.64.21,7.58.79,11.5,1.4l2.87.46,2.35.49,4.7.98.59.12,1.26.3,1.4.38,2.8.77c1.88.48,3.72,1.08,5.53,1.73,3.68,1.19,7.2,2.7,10.73,4.21,6.95,3.21,13.6,6.97,19.86,11.26,12.47,8.65,23.27,19.46,32.03,31.75,8.71,12.31,15.48,26.11,19.37,40.82,4.04,14.63,5.31,30.1,3.81,45.15-1.64,15.03-5.68,29.7-11.99,42.98-3.25,6.69-6.59,12.85-10.84,19.19l-3.17,4.73c-1.03,1.48-1.96,2.61-2.94,3.93l-2.91,3.82-.52.68-.23.27-.45.53-.9,1.07-1.82,2.12c-9.78,10.88-19.88,19.56-30.21,27.99-10.38,8.28-20.84,16.13-31.56,23.56-10.68,7.47-21.48,14.64-32.42,21.57-10.88,7.01-22.02,13.57-33.12,20.16-11.08,6.61-22.34,12.92-33.68,19.05-11.3,6.21-22.76,12.11-34.4,17.78l-3.04,1.48-1.9-2.15h0c-6.32-4.88-12.39-9.98-18.48-15.08-5.67-4.71-12.38-9.82-18.27-14.95-6-5.21-12.15-10.3-17.94-15.75-5.85-5.4-11.69-10.82-17.42-16.4-5.69-5.6-11.31-11.33-16.8-17.24-5.56-5.96-10.75-11.9-16.19-18.69l-4.04-5.24-3.41-4.82c-2.84-4.19-5.05-7.94-7.18-12.28-4.08-8.54-7.08-17.99-8.14-27.91-.86-9.91-.07-20.21,3.12-29.76,3.1-9.55,8.1-18.4,14.61-25.76,6.46-7.42,14.3-13.47,23.1-17.77,4.37-2.19,9.04-3.85,13.84-5.05,2.43-.64,4.76-1.02,7.43-1.39,1.34-.15,2.86-.32,4.05-.39l2.96-.05h.18s.58-.03.58-.03h.11s.44.02.44.02l.87.04,1.75.07c1.17.07,2.31.06,3.49.22,2.34.26,4.66.47,7,.97,4.65.79,9.25,2.22,13.66,4,8.82,3.63,16.79,9.14,23.08,15.8,6.36,6.62,11.28,14.13,15.05,21.96,3.79,7.97,6.51,15.67,8.28,24.77l-14.79-3.73c2.5-2.74,4.71-4.78,7.19-6.97,2.44-2.12,4.95-4.15,7.57-6.05,2.63-1.89,5.32-3.69,8.14-5.33,1.4-.8,3.06-1.74,4.38-2.39l2.02-.99c1-.49,1.68-.74,2.54-1.11,3.27-1.35,6.58-2.29,9.9-2.91,3.32-.69,6.67-.94,10-1.05,3.33-.06,6.66.13,9.95.6,3.28.5,6.55,1.18,9.71,2.25,3.18.97,6.25,2.34,9.18,3.93,2.93,1.57,5.67,3.45,8.42,5.71,1.37,1.09,2.24,2.08,3.39,3.13,1.4,1.41,2.27,2.62,3.26,4.04,1.92,2.73,3.48,5.65,4.7,8.66,4.95,12.05,4.74,25.16,1.12,36.58Z"/>
  </g>
  <g>
    <path class="cls-2" d="M389.12,596.22l2.44,1.91v2.44l1.22,1.91-1.22,2.61v1.22l-.52,1.91-1.39,1.22-4.35,1.39-3.13-.7h-2.61l-1.91-.7v-1.22l-2.61-.87-.52-.7h-1.91l-.7,1.22-4.35.7-2.61,1.04-1.22,1.91h.52l-3.13,3.13-3.83.52-.52,1.39.87,1.57v1.39l.7.52,1.22,3.13h1.91l.7.7,5.57,1.22,1.91,1.39,6.44,1.22,5.57.52,5.74-.17,6.44-.35,6.26-3.13,3.13-.7.7-1.22,2.26-1.22,2.78-2.61h3.83l2.61,1.91,1.22,1.91-1.22,6.26-.7,1.22-.7,3.83-1.22.7v.7h-1.22l-2.61-.7-1.91-3.83-.52-1.22h-1.39l-3.13,1.22-4.35.7-5.74.35-4.52-.35-1.91.52-.52,1.39-6.96-.17-5.22.17-5.57-1.39-6.96-1.22-4.35-.7-3.3,1.39h-.7l.7,1.91-.7,2.26-1.22,2.26v.52l1.91,5.74v3.13l-2.61,1.91v.52l-.7,2.61-.7,3.13.7,1.39,6.44,1.74,7.65.7,3.83-.7,1.91-1.22,5.57-1.22,2.61.7,3.13-.7,3.13.7,1.91-2.61,5.22.7v1.22l.52,3.83-.52,3.83-2.61,1.91-3.13,2.43-3.13,3.13,2.44,2.61.7,1.91.52,8.17h-2.43l-5.04-4.35-.7-.7v-1.22l-3.83-2.61-.7-1.91-1.22-1.22-.52-1.91-1.91-1.91-5.74-1.91-3.13-.52-3.3-.7-1.22-1.91-3.83-.7-2.43.7-1.39,1.22-1.91.7v1.91l-1.22,1.91-.52,4.35-.7,2.61-.17,2.61-.87,2.43-.52,3.13h-.7l.35,2.61-2.43,3.48-.52,3.13-1.04,2.09-1.57,2.61-3.3,2.61.7.7-1.91,2.43.52,1.39,5.39.52,8,1.91,5.74,2.61,7.48,1.22,1.39,1.22h2.44l4.52,2.61,2.43,2.43,1.91,3.3,5.74,1.22,3.13,2.61,2.61,1.22,1.22-3.13,2.61-1.39h3.83l3.65-2.43,1.91-3.13.7-3.3h1.91l1.91-1.91h3.13l3.13,2.61v3.13l-1.22,2.61-3.83,1.22-5.04,1.22-2.61,1.91-1.22,2.61-2.44,1.22h-1.91l-3.83,3.13-3.13,1.91h-3.83l-1.39-1.91-5.04-.52-1.22-.7-6.96-1.91-2.61-.7-2.44-1.74-6.44-.7-3.83-1.22-2.44-3.3-5.04-1.22-1.91-.7v-.52h-.7l-6.26-1.91-4.52-4.52-.7,1.91v1.91l-.52.7-.7,2.61-1.91,2.43-2.43,1.91-1.39,1.91-4.35,3.13-3.13,1.04h-2.61l-4.7.17-5.39-.52-3.3.52-6.96.35-5.04-.87-1.22-.7-1.91-2.43v-1.39l1.91-6.26,1.22-1.91,3.13-1.22.7-.7,4-1.39,3.13-2.09,2.43-1.04,7.65-.52,6.26.52v-.52h4.17l2.61-5.04.17-2.61,2.61-2.26.52-2.78,1.22-2.61v-2.44l1.39-3.83.52-3.13,1.39-6.96,1.22-2.61.7-1.22.52-.7,3.3-6.26.52-3.3-1.91-2.43-3.83.52-5.57,3.3-2.61.52-2.61,2.26-3.65.35-3.3-1.22.7-2.61,1.91-1.22.7-.7,1.22-.7.7-1.22,2.44-.7.7-1.22,5.04-1.22h4.7l5.57-1.91.7-3.13,1.22-2.61.87-1.22.52-2.78-.17-2.61,1.22-1.57-.7-3.83,1.91-1.22v-1.39l.7-.52,2.78-.87,1.91-1.91.35-2.26-.7-1.91-3.83-1.91h-5.04l-1.91-1.39-1.22-.52-2.61-2.61-2.44-.52-6.96-.7-6.44.7h-1.91l-2.44.52-1.39,1.22-.52.7-4.52,2.61-1.22,2.43v2.61l1.91.52,3.83-.52,1.91-.7,1.91-.52,3.13,1.22.7,1.91v1.22l-1.91.7-5.74,1.22h-1.91l-3.13-.7-1.91-1.22-3.3-.7-2.44-1.22.7-3.13h.52l1.22-1.91,3.83-3.83.7-1.91.7-1.22,7.48-2.61,4.52-1.22.7-1.22,4-.87,3.48.87,3.83-.7,3.13.7h4.52l1.91-.7,3.83,1.22,1.91.7,4,1.91,3.65.52,3.48-4.7.52-1.39,4.52-3.65,1.91-.7,2.96-1.04h3.3l3.83-2.44,2.61-.7,1.22-.52,5.74-.7.52-.35.7-1.22,1.22-1.91,5.04-1.39,3.3-.52ZM296.07,715.19l-3.65,1.91-3.3,2.43-1.91,2.61v1.22l1.39.7h4.35l5.04-1.91,5.22-1.22h3.13l3.65-2.09,2.26-2.26-3.13-1.91-6.61-.35-6.44.87ZM375.9,661.1l-3.13,1.22,2.43,1.91,2.09,1.22,2.61-.17,2.61-1.91-.35-1.91-3.3-1.04-2.96.7Z"/>
    <path class="cls-2" d="M476.95,626.31h1.22l1.91,2.61v3.13l-1.22.7h-3.83l-1.74-.52-2.44.35-2.09.87-2.61,1.22-2.61.7-1.74,2.61-2.09,2.61.17,3.65v.52l-1.39,2.61-1.91,2.43-.52,6.96-1.56,1.91v4.52l-2.09,2.26-1.22,2.26.17,2.61-1.04,2.96v1.91l-1.56,2.26-1.22,2.26-.35,3.13-.35,2.43-1.39,3.65-.17,2.78-1.39,1.04-1.39.87.87,1.91-1.39,1.22-.52,1.22-.87,2.96-1.74,2.09-.35,2.78-.17,2.44-1.39,2.43-.52,3.13-1.91,3.83-1.91,1.91-2.61.7-2.43,2.26-3.3,2.78-3.65,1.22-3.3.7-1.91-.7h-3.65l-1.39-.52-3.13-3.3v-2.44l2.61-1.91h1.22l1.22,1.22,3.13,1.39,2.61-1.39,1.22-1.22,1.56-1.74,1.57-1.04.52-2.44.87-2.09.52-5.39v-1.91l.7-2.43h.7v-1.39l1.22-2.43v-3.3l1.91-2.43.7-2.78,1.22-3.48,1.04-2.61,2.09-2.61.35-2.61.52-2.09.7-2.09.52-2.09.52-1.74,1.04-2.09.35-2.43.7-2.61,1.91-3.83,1.56-1.91,1.22-2.61-.52-2.44.7-3.13,2.43-.7.7-1.22v-2.44l1.22-.7,1.91-4.52.7-.52,3.13-3.65,2.78-2.26,2.09.17,1.57-1.91h1.22l2.44-1.74,4.52-1.39,3.13-.7,2.61-1.22,3.13.52Z"/>
    <path class="cls-2" d="M494.34,678.84l1.74,1.91,1.74.7.87,1.22,2.44,1.04,1.39,1.56.87,2.44.17,1.57.7,2.09-.7.7-.17,1.91.7,1.74-.7,2.09.35,2.61-2.43,4.35-1.91,1.91-2.61.52-3.83-.52-1.22-.7h-1.22l-12.35-1.74-5.57-1.74-2.09,1.04-1.04,2.09-.35,2.09-1.04,2.43-.7,2.43.17,4.52,2.61,5.39,1.91.7.87.17,1.04-.17,5.22.52,3.83-1.39,3.3-2.26,1.56-.87,1.22-.17,1.91-1.74,1.22-1.91,3.65-1.04.7,1.91-.7,1.74-1.91,2.61-3.13,3.3-.7.52-2.61,2.61-5.91,1.91h-5.04l-5.22,1.22-3.83-.7-.52-.52-3.13-.7-3.3-2.61-1.91-2.43-1.22-1.91-.52-.7-1.39-2.43-.17-1.39-.7-3.65.7-3.3.52-3.13.7-.7-.35-.52,1.22-1.22.7-2.61,1.22-1.22,1.22-2.61v-5.74l1.39-.52,1.22-4.52,1.91-1.91,3.13-2.43,1.22-1.39,2.61-1.91,4.52-1.91,2.61.17,2.43-.7,2.09.87,1.74-.35,1.22-.52,2.09.35,2.78,1.04,2.78.52ZM479.73,683.18l-1.39.52-.87,1.39-1.57,1.04-.7,1.57-.52.52v1.39l-1.04.87-.35,1.04-.52,2.43h-.7l-.17,1.57.52,2.09,5.22,2.09,5.91,1.22h2.43l5.74.17,1.22-2.61.7-.7.7-4.35-.7-.7v-1.22l-.17-3.48-1.91-2.78-2.43-1.91-2.26-1.74-3.48.35-3.65,1.22Z"/>
    <path class="cls-2" d="M563.04,680.92l4.52-.7.52.7v1.91l-2.44,2.43-.35,3.48.35,2.26-2.61.7-1.22,1.91h-.7v1.22l-.52,1.22-.52,3.3-1.39,3.13v2.43l-.7,1.74v1.57l-1.57,1.74-.35,2.09-.87,2.43-.7,3.13h-.52l-.7,1.22h-.7l.35,2.09-.35,1.74.17,1.22-2.44,1.74.35,3.3-.87,3.65-1.57,2.96-.7,2.78-2.26,1.74v1.74l.7.52-.52.87-.17,1.04-1.22.7-1.22,1.91-.7,1.91-.7.52-1.91,2.61-.87,1.04-1.04.87-.52,2.61-1.22,1.74.17,1.57-.87,1.74v.52h-.7l-1.22,1.39-2.26,1.91-2.09,1.22-1.91,2.43-.7.7h-.7l-.52,1.22-3.83,1.39-2.61.52-1.22,1.39h-.7v.52l-1.22.7-3.13,1.91-10.78,1.22h-6.96l-.7-.7-.7-.52h-2.44l-3.13-.7-.7-.52-1.22-.7h-4.52l-2.44-1.91-.87-1.74-2.43-1.22-1.22-1.57v-2.43l.7-1.22v-1.39l2.44-3.83v-.52l.7-.7,1.22-2.43,1.91-1.39,3.83-.52.7-.7h4.35l2.61.7v-.7l3.83.7v1.22h.52v.7h.7l.7.52v1.22l-1.39.7v1.91l-.52.7-3.3.52-1.91-1.22-1.22-.7h-1.22l-.7-1.22-6.26,1.22-.7.7v.7l-1.22,1.91,1.22,3.65v1.91h1.22v.7l1.91,1.22h2.61l7.65,2.61,3.83-.7,5.57.7,2.61-1.22,1.91-1.39v-.52l2.44-.7,1.91-1.22,1.39-1.39,1.91-.52v-.7l2.43-.52,1.22-1.91,1.91-3.3.7-1.22,2.09-5.39,1.74-2.61,1.39-2.26,1.04-1.91,1.04-1.74,1.04-1.04.7-1.57.52-2.43,1.22-1.91,1.91-3.48,1.04-4.17.7-1.91.52-.52v-.7l1.91-.7.87-1.91,1.04-1.22.52-2.43,1.57-2.09,2.26-2.61.35-3.65.7-1.22h.52v-.7l.7-3.13.17-1.22.7-1.74-.52-1.57.87-2.61v-2.96l.7-4.52,1.91-3.13-1.91-1.91-.7-1.22-3.13-1.39-3.13,1.04-2.43,1.22-2.09,1.91-.7,3.13-1.74,1.04-1.39,1.22-1.22,1.22v1.91h-.7l-.52,3.13-.7.7-.7,1.91-.52,1.22-2.26,1.74-.87,2.09v.7l-.7,1.91v.52l-1.22.7-.7,4.52.7.52h3.65l3.83-1.91,1.39-1.91v-.52l1.91-1.91,3.13-1.39v-.52l4.35-.7h.7v1.91l-.7.7v.52l-.52.7-3.3,1.91.7,1.22-.7.7v.7l-1.91.52-3.13,2.61-3.83,2.44-3.13.7-2.96.35-3.3-.35-2.26-1.91-2.26-.7-2.61-2.09-.52-3.48-.7-1.91v-6.96l1.39-3.3.52-1.91h1.39v-1.22h1.22l.52-1.22,1.39-.7,1.04-2.09,2.26-2.43.35-1.22,1.57-1.91,4.17-2.96,3.3-1.91,3.83-2.09,5.57-1.22h3.3l1.91-.7h2.44l3.13.7,2.09.35,2.96-.35h.7l1.91-1.91,3.13.7Z"/>
    <path class="cls-2" d="M619.91,677.79l3.3,1.22,2.44-.7,1.39.7.52,1.22,4.52-.52,1.91-1.39,1.22.7,1.91-.7.52.7.7,1.91-.7,1.22-1.22.7v.7l-5.04.52-.7,1.39v1.74l-.52.7v1.91h-.7v.7l-1.04,1.22-.35,1.57-1.39,1.04.52,1.22-.52,1.22-1.56,5.04-2.61,3.13h.7v.7l-2.61,1.91-1.91,1.91-.35,1.04.35.87-.7,5.74h-.52v1.22l-1.22,1.91.52,1.22,1.91.52,1.91-1.74,1.91-1.22,3.13-1.39,1.04,1.91-1.56,3.3-3.3,2.61-3.13,3.65-5.74,1.22h-1.22v-.52h-1.91l-1.91-1.91-1.91-1.39v-2.44l-.52-3.13-1.39-1.39h-.52l-3.83,3.83-.7,1.22-3.13.7-1.22,1.91-3.65,1.39-2.09-.7-2.09.35-3.48-1.74-2.09-.52-2.43-1.91-1.39-3.13-.7-1.39-.35-1.91-.17-2.09.7-3.48h.52l.7-2.26.52-2.09-.52-1.39v-.7l.7-1.91,1.22-1.91.35-1.22,2.26-2.09,1.39-2.26,1.74-3.3.87-3.13,1.57-1.22,1.22-1.39,3.3-1.22,1.22-.52h.7l1.91-1.91,2.43-1.91.7-1.39,5.74-1.91,5.04.7,1.91,1.22h2.43l2.61-2.44h2.44ZM611.04,682.84h-2.43l-4.52,1.91-2.44,2.43-.7,2.61-.87,1.39-.52,1.91-1.22,2.26-1.39,4-.7,2.09-1.04,1.39-.35,1.91-1.74,1.57-.35,1.22.35,1.22-1.91,2.61v2.26l-1.04,1.04v1.74l-.7,1.22v.7l-1.74.7v2.43l.52.7,2.61,1.22,1.22-.52,3.13-1.91,1.91-1.39h.7l1.91-1.22,1.91-2.61,1.22-1.22v-.52l1.22-.7,1.56-2.61,1.04-2.43,1.04-1.57,2.09-3.48v-.7l1.91-1.91.7-3.13,1.57-3.13v-.7l.52-2.61,1.39-.52v-.7l-.35-.7,1.22-2.43.7-1.22h.52l.7-1.91-3.83-1.39-3.83.7Z"/>
    <path class="cls-2" d="M666.52,676.92l1.91.87,2.43,3.13.7,1.91v1.22l-1.22.7v1.22l-1.22,1.91v.7l-.35,1.74.35,1.39,1.22.7,3.13-1.39,3.83-2.43v-.7h.7l1.74-1.22h.7l1.91-1.39.7-1.22,2.44-.52v-.7l2.61-1.22,1.91-.7.52-.7h1.39l2.44-1.22,1.39-1.22h1.91l.52,1.22h.7l1.22,1.91,1.22,3.13v1.91l-.52.7v3.13l-.7.7-1.39,3.13.52,1.22-.7.7-.7,2.09-.17,2.26-.35,1.04.35.87-.52.7-.87,1.22-.87,1.91-1.04,1.91-.52,1.22-1.91,3.3-.7,3.65-1.22,1.91.35,2.43,3.48-2.96,2.09-2.44,2.26-.87,2.61.7-.7,1.91-1.57,2.26-2.09,1.74-1.57,2.26-1.39,2.61-1.22.7v.52l-4.17,2.61-2.61-.7-3.83-2.44-.52-.7-1.39-1.22-.87-1.91v-1.91l-.7-1.22.52-1.39-.17-1.91.17-1.91.52-1.22,1.74-4.87,1.22-2.44,1.39-1.57,1.57-3.83.17-2.61.17-1.74v-1.39l1.39-3.13,1.04-4.35-1.74-.7-.7.7v.52l-3.83,2.61v.7l-2.44.52v.7l-2.61,1.22-1.22,1.22v1.39l-1.22.52-3.3.7v1.22h-1.22l-.52.7h-.7l-.7,1.22v1.39l-1.91.52v1.22l-.87,1.91-.17,2.96-1.74,3.48-1.04,4.35-1.22,2.61-2.09,1.74-1.04,1.57-1.91,2.96-1.22,1.39-3.3.52-2.44.7-3.65.87-2.09-.87-2.96.87-3.31-2.26-1.39-3.3.7-2.96,1.91-.7,2.61,1.39,1.74,1.04,3.13-.52,2.09-1.39.52-3.65.7-.52.17-2.96.52-2.43,1.04-2.61,1.22-2.09,1.39-2.61.87-2.44.7-2.26.35-2.96.7-1.91,1.22-2.44-.52-1.91.52-1.39-1.22-1.22-1.91.7v.52l-2.61.7-1.74,1.22-3.83.7-2.61.7-3.13-1.39-.7-1.91.7-1.22,8.17-.7,4.52-1.74,6.26-3.3h1.39l4.17-2.96,2.09-.35Z"/>
    <path class="cls-2" d="M750.52,677.97l1.22,1.91,3.3.87,2.61,1.39h2.61l3.13-.17,1.91.52,1.57.87-.17,1.74-1.22,2.09-1.56,1.91-2.61.17-3.48.35-3.48-1.91-3.13-1.91-4,.35-3.13-.52-4.35.52-3.3,2.09-.52,1.22-1.39,1.91-1.04,3.3-.87,2.09-1.04,1.91v1.74l-1.91,1.22.17,1.39-.87,1.57-1.39.7v.7l-1.91,2.43-.52,2.61v1.91h1.22l-.7,3.83v3.13l.7,1.22,1.22.7,3.3,1.22,4-.52,2.43-.87,1.57-.7,2.26-1.04,2.96-1.22,2.09-1.74.7-2.26,1.22-1.57,2.78-1.56,2.43.35.87,1.74,1.39,1.22v1.91l-.7.52-2.44,1.91-1.91,1.91-5.74,2.61-.7.52-2.43.7-1.39.7h-.52l-.7,1.22v.35h-1.74l-2.09,1.57h-3.13l-3.13-.7h-3.3l-1.74-.52v-1.39l-2.61-1.91-.7-1.74-.52-.7-1.91-1.22-3.13-1.04-1.22-2.61-1.39-1.91-.7-3.48v-3.65l.7-3.83,2.26-4.7,2.09-2.26-.35-.7.35-1.22h.7l1.22-2.61v-.52l1.39-1.91,2.09-.87.7-1.57,1.39-1.91,2.44-1.39,1.04-2.61,2.43-.7.87-1.39h2.26l3.3-1.74,5.57-.52,3.13-.7,5.22,1.22Z"/>
    <path class="cls-2" d="M838.01,677.44l1.22,3.83-1.22,2.44-.7,1.91h-.7l-.52,1.91-1.39,1.22-.52,1.39-1.91,1.91v.52l-1.91,3.13-3.83,1.91.52.7-.87.87-.35,2.26v.7l-.52,1.91-.7,2.43-.7,3.3-2.44,2.43-.7,3.13-1.22,1.39v1.91l-.7,2.44-1.22,1.39v1.22h-1.22l-1.39,4.35-1.91,1.91-1.22.7v.7l-1.22,1.91-1.22,3.65v2.44l-1.39,2.09v1.22l-.52.7-1.39,2.43-1.91,1.91v1.39l-1.22.52v1.39l-1.91,1.22v1.22h-.7l-.52,2.61-1.39,3.13-1.22,2.78-3.13,2.26-.7.7.52,1.39-.52,1.74-2.43,1.91-.17.87-1.04.35h-2.61l-1.22.7v1.91l-1.39,1.22-.52.7-1.91,1.91-.7,1.22h-.7l-.52,1.22-1.91,1.39-3.13.52-1.39,1.22-.52,1.39-4.52,1.91h-.52l-.7,1.22-4.52.7-6.26,1.91h-2.61l-3.13.52h-4.35l-1.91-.52-1.91-1.91-3.13-1.91-1.39-1.91v-2.61l-1.22-2.44v-3.3l.7-.52v-2.61l2.61-3.3,2.96-.52,1.39-.52h4.35l3.83.52,1.22,1.39.7,3.13v1.22l-1.22,1.91-2.61,1.22-2.96.52-2.78-.52-1.91-1.22h-.52v1.91l-1.22,1.91h1.74l1.91,3.13h1.39l.52,1.22,2.61,1.39,5.04-.7,4.52-1.22,1.22-1.39.7-.52h2.43l3.3-1.04,3.13-2.09v-.7l1.74-.7v-.52l2.61-2.61h.7l1.22-2.61h1.91l3.83-4.35,1.22-3.13,1.74-2.61.87-3.13.52-.7,1.39-2.78.52-3.48h.7v-1.22l.7-1.39,1.22-.52,1.91-3.83h.52v-1.39l1.91-1.74.7-6.43-.7-2.44v-1.39h.7l.7-1.22,1.22-1.22-1.91-.7h-4.52l-1.74-.7-1.39-.52-1.22-.7-1.91-1.91-1.91-.7h-.7l-1.91-2.43h-.52v-1.22l-.35-1.39-1.04-2.09-1.74-2.78-.7-3.3.7-3.65,1.04-2.43.17-2.09,1.91-.7.35-1.39.87-.52v-.7l3.13-2.43,1.39-3.13v-1.39l1.22-1.91-.7-1.91.7-1.91-.7-1.22-3.13.7-2.61,1.22-1.22,2.61-1.22,1.22-2.61.7-2.44,1.22-1.91,1.22h-.7l-3.13-.52-.7-.7.7-1.91,1.22-.7,1.39.7,3.13-1.22,1.91-1.91.52-1.39,1.91-1.74,1.39-1.91,1.74-1.39h1.39l3.83-2.44h1.22l3.13-.7,4.52-.52,2.43.52,1.91.7,1.22,3.83,1.39,3.65h-.7l-1.22.7v2.61h-.7v.52h-.52l-.35,3.3-.87,1.74.52,3.3-1.22,4.35-1.39,1.22v1.39h-.52l-1.91,3.13h-.7v.7l-.52,2.78,1.74,3.48.7.7v.52l1.22.7,1.91,1.91.7,1.91,1.22.7,5.04-.87,3.13-2.43,2.09-1.91.52-1.22,2.61-.7v-1.74l1.22-1.91,1.22-4.52,1.39-3.83,2.43-2.43,1.22-5.22,1.39-1.74v-.7h.52l.7-1.91h.7l1.22-.7.7-2.43h.52v-1.91l.7-.7v-4.35l1.91-1.91,4.35-1.39,1.39-.52h3.83Z"/>
    <path class="cls-2" d="M881.84,677.79l3.3,1.22,2.44-.7,1.39.7.52,1.22,4.52-.52,1.91-1.39,1.22.7,1.91-.7.52.7.7,1.91-.7,1.22-1.22.7v.7l-5.04.52-.7,1.39v1.74l-.52.7v1.91h-.7v.7l-1.04,1.22-.35,1.57-1.39,1.04.52,1.22-.52,1.22-1.57,5.04-2.61,3.13h.7v.7l-2.61,1.91-1.91,1.91-.35,1.04.35.87-.7,5.74h-.52v1.22l-1.22,1.91.52,1.22,1.91.52,1.91-1.74,1.91-1.22,3.13-1.39,1.04,1.91-1.57,3.3-3.3,2.61-3.13,3.65-5.74,1.22h-1.22v-.52h-1.91l-1.91-1.91-1.91-1.39v-2.44l-.52-3.13-1.39-1.39h-.52l-3.83,3.83-.7,1.22-3.13.7-1.22,1.91-3.65,1.39-2.09-.7-2.09.35-3.48-1.74-2.09-.52-2.44-1.91-1.39-3.13-.7-1.39-.35-1.91-.17-2.09.7-3.48h.52l.7-2.26.52-2.09-.52-1.39v-.7l.7-1.91,1.22-1.91.35-1.22,2.26-2.09,1.39-2.26,1.74-3.3.87-3.13,1.56-1.22,1.22-1.39,3.3-1.22,1.22-.52h.7l1.91-1.91,2.43-1.91.7-1.39,5.74-1.91,5.04.7,1.91,1.22h2.44l2.61-2.44h2.43ZM872.97,682.84h-2.44l-4.52,1.91-2.43,2.43-.7,2.61-.87,1.39-.52,1.91-1.22,2.26-1.39,4-.7,2.09-1.04,1.39-.35,1.91-1.74,1.57-.35,1.22.35,1.22-1.91,2.61v2.26l-1.04,1.04v1.74l-.7,1.22v.7l-1.74.7v2.43l.52.7,2.61,1.22,1.22-.52,3.13-1.91,1.91-1.39h.7l1.91-1.22,1.91-2.61,1.22-1.22v-.52l1.22-.7,1.57-2.61,1.04-2.43,1.04-1.57,2.09-3.48v-.7l1.91-1.91.7-3.13,1.57-3.13v-.7l.52-2.61,1.39-.52v-.7l-.35-.7,1.22-2.43.7-1.22h.52l.7-1.91-3.83-1.39-3.83.7Z"/>
    <path class="cls-2" d="M951.93,694.66l-2.09.52-1.91-.52-3.13.17-2.61-.7-1.39-.52-1.22-1.91-1.57-2.09-2.61-1.04-2.09,1.91-1.57,2.61-.35,2.43-1.91,1.22-1.91,3.13.17,2.26-.7,2.26-1.57.7.17,2.43-1.91,1.91-.52,2.26-1.22,2.09-1.91.7-.35,2.26.35,1.57-.7,2.61-1.22,1.74-.52,2.43-2.26,2.78-2.96.7-1.56.52-2.26-1.04-2.96-.35-3.13.7-1.91.7h-1.22l-.87-1.74.17-2.09,1.57-1.74,1.39-.87,1.22-1.22v-3.13l.7-1.91h.7l.35-1.57.87-.35.52-1.57h.7l1.22-3.13,1.39-1.39,2.09-1.91.35-1.57,2.09-3.3v-2.09l.87-2.26.87-3.65v-2.09l-1.22-2.44-1.74-.52-2.09.17h-1.22l-1.91,1.22-1.91-1.04-1.91.35-.7-.52h-2.43v-1.39l1.22-1.22,1.22-.7,1.39-.52,1.74.17,1.74-1.39,3.48-1.39h2.43l.7-.52,2.61.35,1.22-.35,3.13-2.09,2.78,1.22,1.57.87,1.39,2.43.52,1.22v.7l1.39,2.96h.52l1.91-3.13,2.78-3.13.7-.87,1.56-1.39,1.22-.87,2.09-.7,1.91.7,1.22,1.74,2.09,1.22,1.39,1.57v1.39l2.26,2.26,2.43.7v.52l1.22,1.39-.35,4.17Z"/>
    <path class="cls-2" d="M989.5,655.7l.7.52,1.22-.52v4.35l-1.22.7v.52l-.7.7v1.91l-2.61,3.13-.7,3.13-1.57,2.78,4.17.52,2.61.52,1.74-.35,3.13-.17,1.57.35,2.09-.17,2.26.35,1.22,2.61-.52,3.13-1.91.52-2.26-.52-4.17-1.22h-2.43l-3.3.52-.52.7h-3.65l-1.91,1.74-.7,2.44-1.39,2.78v2.61l-.7,3.13-1.22,1.22.7,3.3-1.22.52-.7,1.22.7,1.39-1.39,1.57-.52,2.61-.7.17-1.22,2.61v.52l-2.61,1.39.7,1.91-1.39,1.22-.52,1.91-1.91,2.61v1.22l.52.52h1.39v1.39l-.7.52.7,1.91.35,2.09,3.48-.7,1.39.87,1.04-.87,1.39.52,2.96-1.04,2.61-.87,1.91-1.91,1.39-3.65v-3.3l1.57-3.3,1.57-2.09-1.39-.87,1.39-1.22v-.7l1.91-1.22h1.91l1.91.52,1.74,3.83-1.22,1.91v1.91l-2.43,2.61-1.91,1.22v.7l-1.91,2.44-.7,2.61-1.57,2.26-2.09,1.39-1.39,1.91-3.13,1.57-1.39.35h-1.74l-.7,1.39h-1.22l-.7-.7-1.91.7-.7.52-3.13.7v-.7l-4.35-.52h-1.91l-1.39-1.39-2.43-1.22-2.61-2.43v-3.3l-.52-.52v-2.61l1.22-3.13.52-1.39.17-2.43,1.04-1.04.7-1.91v-2.78l1.22-1.57,1.04-1.39v-2.43l.7-2.09.52-2.09,1.57-1.74-.7-1.39.7-2.61.7-1.74.7-2.61v-.52l.7-2.61h1.22l.52-1.22.7-3.3-.7-.7-3.13.7-1.91,1.39-1.22.52-1.91-.52-3.83,1.22h-3.13l.7-2.61,2.43-1.74,2.61-1.39h1.22l.7-1.22h1.91l2.43-1.22,1.57.35,3.13-.7,2.78-.87.87-2.61h1.22l2.61-3.13.52-1.91,1.22-.7,1.39-.7.52-1.91,1.91.7.7-.7v-1.22l2.61-1.22v-1.22l1.22-1.91h1.22Z"/>
  </g>
</svg>